<svg width="122" height="122" viewBox="0 0 122 122" fill="none" id="svg-anim" xmlns="http://www.w3.org/2000/svg" class="join" style="">
<path width="121" height="121" fill="#DFF4E7" stroke="#052C29" d="M 9.5,0.5 L 112.5,0.5 A 9,9,0,0,1,121.5,9.5 L 121.5,112.5 A 9,9,0,0,1,112.5,121.5 L 9.5,121.5 A 9,9,0,0,1,0.5,112.5 L 0.5,9.5 A 9,9,0,0,1,9.5,0.5" class="MSHltxdS_0"></path>
<path d="M61 37C64.0168 37 66.9101 38.2207 69.0433 40.3935C71.1766 42.5664 72.375 45.5134 72.375 48.5862C72.375 51.6591 71.1766 54.6061 69.0433 56.7789C66.9101 58.9517 64.0168 60.1724 61 60.1724C57.9832 60.1724 55.0899 58.9517 52.9567 56.7789C50.8234 54.6061 49.625 51.6591 49.625 48.5862C49.625 45.5134 50.8234 42.5664 52.9567 40.3935C55.0899 38.2207 57.9832 37 61 37ZM38.25 45.2759C40.07 45.2759 41.76 45.7724 43.2225 46.6662C42.735 51.4 44.1 56.1007 46.895 59.7752C45.27 62.9531 42.02 65.1379 38.25 65.1379C35.6641 65.1379 33.1842 64.0916 31.3557 62.2292C29.5272 60.3668 28.5 57.8408 28.5 55.2069C28.5 52.573 29.5272 50.047 31.3557 48.1846C33.1842 46.3222 35.6641 45.2759 38.25 45.2759ZM83.75 45.2759C86.3359 45.2759 88.8158 46.3222 90.6443 48.1846C92.4728 50.047 93.5 52.573 93.5 55.2069C93.5 57.8408 92.4728 60.3668 90.6443 62.2292C88.8158 64.0916 86.3359 65.1379 83.75 65.1379C79.98 65.1379 76.73 62.9531 75.105 59.7752C77.9386 56.0491 79.2538 51.3543 78.7775 46.6662C80.24 45.7724 81.93 45.2759 83.75 45.2759ZM39.875 79.2069C39.875 72.3545 49.3325 66.7931 61 66.7931C72.6675 66.7931 82.125 72.3545 82.125 79.2069V85H39.875V79.2069ZM22 85V80.0345C22 75.4331 28.1425 71.56 36.4625 70.4345C34.545 72.6855 33.375 75.7972 33.375 79.2069V85H22ZM100 85H88.625V79.2069C88.625 75.7972 87.455 72.6855 85.5375 70.4345C93.8575 71.56 100 75.4331 100 80.0345V85Z" fill="#052C29" class="MSHltxdS_1"></path>
<style data-made-with="vivus-instant">.MSHltxdS_0{stroke-dasharray:469 471;stroke-dashoffset:470;}.join .MSHltxdS_0{animation:MSHltxdS_draw 3000ms ease-in-out 0ms forwards;}.MSHltxdS_1{stroke-dasharray:402 404;stroke-dashoffset:403;}.join .MSHltxdS_1{animation:MSHltxdS_draw 3000ms ease-in-out 0ms forwards;}@keyframes MSHltxdS_draw{100%{stroke-dashoffset:0;}}@keyframes MSHltxdS_fade{0%{stroke-opacity:1;}94.44444444444444%{stroke-opacity:1;}100%{stroke-opacity:0;}}</style></svg>
