<svg width="57" height="35" viewBox="0 0 57 35" fill="none" xmlns="http://www.w3.org/2000/svg">
<path d="M28.5 0C30.7046 0 32.8189 0.890084 34.3778 2.47444C35.9367 4.0588 36.8125 6.20765 36.8125 8.44828C36.8125 10.6889 35.9367 12.8377 34.3778 14.4221C32.8189 16.0065 30.7046 16.8966 28.5 16.8966C26.2954 16.8966 24.1811 16.0065 22.6222 14.4221C21.0633 12.8377 20.1875 10.6889 20.1875 8.44828C20.1875 6.20765 21.0633 4.0588 22.6222 2.47444C24.1811 0.890084 26.2954 0 28.5 0ZM11.875 6.03448C13.205 6.03448 14.44 6.39655 15.5088 7.04828C15.1525 10.5 16.15 13.9276 18.1925 16.6069C17.005 18.9241 14.63 20.5172 11.875 20.5172C9.98533 20.5172 8.17306 19.7543 6.83686 18.3963C5.50067 17.0383 4.75 15.1964 4.75 13.2759C4.75 11.3553 5.50067 9.51346 6.83686 8.15543C8.17306 6.79741 9.98533 6.03448 11.875 6.03448ZM45.125 6.03448C47.0147 6.03448 48.8269 6.79741 50.1631 8.15543C51.4993 9.51346 52.25 11.3553 52.25 13.2759C52.25 15.1964 51.4993 17.0383 50.1631 18.3963C48.8269 19.7543 47.0147 20.5172 45.125 20.5172C42.37 20.5172 39.995 18.9241 38.8075 16.6069C40.8782 13.89 41.8394 10.4667 41.4913 7.04828C42.56 6.39655 43.795 6.03448 45.125 6.03448ZM13.0625 30.7759C13.0625 25.7793 19.9737 21.7241 28.5 21.7241C37.0263 21.7241 43.9375 25.7793 43.9375 30.7759V35H13.0625V30.7759ZM0 35V31.3793C0 28.0241 4.48875 25.2 10.5688 24.3793C9.1675 26.0207 8.3125 28.2897 8.3125 30.7759V35H0ZM57 35H48.6875V30.7759C48.6875 28.2897 47.8325 26.0207 46.4313 24.3793C52.5113 25.2 57 28.0241 57 31.3793V35Z" fill="#7ED5B5"/>
<path d="M28.5 0.25C30.637 0.25 32.6873 1.11274 34.1996 2.64978C35.7121 4.18696 36.5625 6.27266 36.5625 8.44828C36.5625 10.6239 35.7121 12.7096 34.1996 14.2468C32.6873 15.7838 30.637 16.6466 28.5 16.6466C26.363 16.6466 24.3127 15.7838 22.8004 14.2468C21.2879 12.7096 20.4375 10.6239 20.4375 8.44828C20.4375 6.27266 21.2879 4.18696 22.8004 2.64978C24.3127 1.11274 26.363 0.25 28.5 0.25ZM11.875 6.28448C13.1032 6.28448 14.2458 6.60417 15.2446 7.18209C14.9332 10.5891 15.9128 13.9623 17.8975 16.6307C16.7276 18.7949 14.4753 20.2672 11.875 20.2672C10.053 20.2672 8.3047 19.5317 7.01507 18.221C5.7253 16.9101 5 15.1314 5 13.2759C5 11.4203 5.7253 9.64161 7.01507 8.33077C8.3047 7.02007 10.053 6.28448 11.875 6.28448ZM45.125 6.28448C46.947 6.28448 48.6953 7.02007 49.9849 8.33077C51.2747 9.64161 52 11.4203 52 13.2759C52 15.1314 51.2747 16.9101 49.9849 18.221C48.6953 19.5317 46.947 20.2672 45.125 20.2672C42.5247 20.2672 40.2724 18.7949 39.1025 16.6307C41.1138 13.9264 42.0595 10.5569 41.7553 7.1822C42.754 6.60421 43.8967 6.28448 45.125 6.28448ZM13.3125 30.7759C13.3125 28.4028 14.9555 26.2076 17.7104 24.5919C20.4593 22.9798 24.2734 21.9741 28.5 21.9741C32.7266 21.9741 36.5407 22.9798 39.2896 24.5919C42.0445 26.2076 43.6875 28.4028 43.6875 30.7759V34.75H13.3125V30.7759ZM0.25 34.75V31.3793C0.25 29.8225 1.29247 28.3443 3.14098 27.1383C4.85629 26.0191 7.23061 25.1605 9.98066 24.7189C8.77749 26.3532 8.0625 28.4765 8.0625 30.7759V34.75H0.25ZM56.75 34.75H48.9375V30.7759C48.9375 28.4765 48.2225 26.3532 47.0193 24.7189C49.7694 25.1605 52.1437 26.0191 53.859 27.1383C55.7075 28.3443 56.75 29.8225 56.75 31.3793V34.75Z" stroke="black" stroke-opacity="0.1" stroke-width="0.5"/>
</svg>
