<svg width="58" height="60" viewBox="0 0 58 60" fill="none" xmlns="http://www.w3.org/2000/svg">
<path d="M57.5484 49.4445C57.5484 54.8936 53.1244 59.3226 47.6546 59.3226C42.1849 59.3226 37.7608 54.8936 37.7608 49.4445C37.7608 43.9954 33.4708 39.6737 28.1351 39.5663C28.0547 39.5395 27.9742 39.5395 27.8938 39.5395C27.8134 39.5395 27.7329 39.5395 27.6525 39.5663C22.29 39.4321 18 35.0567 18 29.6613C18 24.2659 22.29 19.9174 27.6525 19.81H28.1351C33.4708 19.6758 37.7608 15.3004 37.7608 9.905C37.7608 4.50959 42.1849 0 47.6546 0C53.1244 0 57.5484 4.42907 57.5484 9.905C57.5484 15.3809 53.2584 19.6758 47.9227 19.81C47.8423 19.7832 47.7351 19.7832 47.6546 19.7832C47.5742 19.7832 47.4937 19.7832 47.4133 19.81C42.0508 19.9174 37.7608 24.2928 37.7608 29.6613C37.7608 35.0299 42.0508 39.4321 47.4133 39.5663H47.9227C53.2584 39.6737 57.5484 44.0491 57.5484 49.4445Z" fill="#2D6A65"/>
<path d="M10.4717 19.4468C15.7222 19.4468 19.9785 15.1904 19.9785 9.93994C19.9785 4.68946 15.7222 0.433105 10.4717 0.433105C5.2212 0.433105 0.964844 4.68946 0.964844 9.93994C0.964844 15.1904 5.2212 19.4468 10.4717 19.4468Z" fill="#2D6A65"/>
<path d="M10.4717 58.9996C15.7222 58.9996 19.9785 54.573 19.9785 49.1125C19.9785 43.652 15.7222 39.2254 10.4717 39.2254C5.2212 39.2254 0.964844 43.652 0.964844 49.1125C0.964844 54.573 5.2212 58.9996 10.4717 58.9996Z" fill="#2D6A65"/>
</svg>
